<?xml version="1.0" encoding="utf-8"?>
<!-- Generator: Adobe Illustrator 21.0.0, SVG Export Plug-In . SVG Version: 6.00 Build 0)  -->
<svg version="1.1" id="Capa_1" xmlns="http://www.w3.org/2000/svg" xmlns:xlink="http://www.w3.org/1999/xlink" x="0px" y="0px"
	 width="300px" height="300px" viewBox="0 0 300 300" style="enable-background:new 0 0 300 300;" xml:space="preserve">
<style type="text/css">
	.st0{clip-path:url(#SVGID_2_);}
	.st1{fill:#0862A9;}
	.st2{fill:#9BC339;}
</style>
<g>
	<g>
		<g>
			<defs>
				<polygon id="SVGID_1_" points="26.5,78.8 26.5,221.3 150,292.5 273.5,221.3 273.5,78.8 150,7.5 				"/>
			</defs>
			<clipPath id="SVGID_2_">
				<use xlink:href="#SVGID_1_"  style="overflow:visible;"/>
			</clipPath>
			<g class="st0">
				<polygon class="st1" points="273.5,93 273.5,221.3 162.3,285.4 162.3,228.4 224,192.8 224.1,121.5 				"/>
				<polygon class="st1" points="261,71.7 211.7,100.2 150,64.5 88.3,100.1 39,71.6 150,7.5 				"/>
				<polygon class="st1" points="137.7,228.3 137.7,285.3 26.5,221.3 26.5,93 76,121.5 75.9,192.8 				"/>
				<polygon class="st2" points="199.4,121.5 199.4,178.5 150,207 100.6,178.5 100.6,121.5 150,93 				"/>
			</g>
		</g>
	</g>
</g>
</svg>
